<svg width="400" height="300" viewBox="0 0 400 300" xmlns="http://www.w3.org/2000/svg">
  <!-- Brain outline -->
  <path d="M80 150 C80 100, 120 60, 170 60 C200 50, 230 55, 250 70 C280 50, 320 60, 340 90 C350 110, 345 130, 340 150 C345 170, 350 190, 340 210 C320 240, 280 250, 250 230 C230 245, 200 250, 170 240 C120 240, 80 200, 80 150 Z" fill="none" stroke="#3b82f6" stroke-width="2"/>
  
  <!-- Brain divisions -->
  <path d="M170 60 C170 80, 175 100, 180 120 C185 140, 190 160, 195 180 C200 200, 205 220, 210 240" fill="none" stroke="#3b82f6" stroke-width="1.5"/>
  <path d="M250 70 C245 90, 240 110, 235 130 C230 150, 225 170, 220 190 C215 210, 210 230, 205 240" fill="none" stroke="#3b82f6" stroke-width="1.5"/>
  
  <!-- Circuit connections -->
  <line x1="100" y1="120" x2="140" y2="110" stroke="#3b82f6" stroke-width="1" opacity="0.7"/>
  <line x1="140" y1="110" x2="180" y2="100" stroke="#3b82f6" stroke-width="1" opacity="0.7"/>
  <line x1="180" y1="100" x2="220" y2="95" stroke="#3b82f6" stroke-width="1" opacity="0.7"/>
  <line x1="220" y1="95" x2="260" y2="100" stroke="#3b82f6" stroke-width="1" opacity="0.7"/>
  <line x1="260" y1="100" x2="300" y2="110" stroke="#3b82f6" stroke-width="1" opacity="0.7"/>
  
  <line x1="110" y1="180" x2="150" y2="170" stroke="#3b82f6" stroke-width="1" opacity="0.7"/>
  <line x1="150" y1="170" x2="190" y2="165" stroke="#3b82f6" stroke-width="1" opacity="0.7"/>
  <line x1="190" y1="165" x2="230" y2="170" stroke="#3b82f6" stroke-width="1" opacity="0.7"/>
  <line x1="230" y1="170" x2="270" y2="180" stroke="#3b82f6" stroke-width="1" opacity="0.7"/>
  <line x1="270" y1="180" x2="310" y2="190" stroke="#3b82f6" stroke-width="1" opacity="0.7"/>
  
  <!-- Neural nodes -->
  <circle cx="100" cy="120" r="3" fill="#3b82f6" opacity="0.8"/>
  <circle cx="140" cy="110" r="3" fill="#3b82f6" opacity="0.8"/>
  <circle cx="180" cy="100" r="3" fill="#3b82f6" opacity="0.8"/>
  <circle cx="220" cy="95" r="3" fill="#3b82f6" opacity="0.8"/>
  <circle cx="260" cy="100" r="3" fill="#3b82f6" opacity="0.8"/>
  <circle cx="300" cy="110" r="3" fill="#3b82f6" opacity="0.8"/>
  
  <circle cx="110" cy="180" r="3" fill="#3b82f6" opacity="0.8"/>
  <circle cx="150" cy="170" r="3" fill="#3b82f6" opacity="0.8"/>
  <circle cx="190" cy="165" r="3" fill="#3b82f6" opacity="0.8"/>
  <circle cx="230" cy="170" r="3" fill="#3b82f6" opacity="0.8"/>
  <circle cx="270" cy="180" r="3" fill="#3b82f6" opacity="0.8"/>
  <circle cx="310" cy="190" r="3" fill="#3b82f6" opacity="0.8"/>
  
  <!-- Additional brain details -->
  <path d="M120 140 C130 135, 140 140, 150 135 C160 140, 170 135, 180 140" fill="none" stroke="#3b82f6" stroke-width="1" opacity="0.6"/>
  <path d="M220 140 C230 135, 240 140, 250 135 C260 140, 270 135, 280 140" fill="none" stroke="#3b82f6" stroke-width="1" opacity="0.6"/>
  
  <!-- Circuit patterns -->
  <rect x="90" y="115" width="8" height="2" fill="#3b82f6" opacity="0.5"/>
  <rect x="135" y="105" width="8" height="2" fill="#3b82f6" opacity="0.5"/>
  <rect x="175" y="95" width="8" height="2" fill="#3b82f6" opacity="0.5"/>
  <rect x="215" y="90" width="8" height="2" fill="#3b82f6" opacity="0.5"/>
  <rect x="255" y="95" width="8" height="2" fill="#3b82f6" opacity="0.5"/>
  <rect x="295" y="105" width="8" height="2" fill="#3b82f6" opacity="0.5"/>
</svg>